<svg id="visual" viewBox="0 0 2199 200" width="2199" height="200" xmlns="http://www.w3.org/2000/svg" xmlns:xlink="http://www.w3.org/1999/xlink" version="1.1"><path d="M0 199L30.5 176.8C61 154.7 122 110.3 183.2 95C244.3 79.7 305.7 93.3 366.8 112.7C428 132 489 157 550 152.5C611 148 672 114 733 114.5C794 115 855 150 916.2 150C977.3 150 1038.7 115 1099.8 97.2C1161 79.3 1222 78.7 1283 79.5C1344 80.3 1405 82.7 1466 91.2C1527 99.7 1588 114.3 1649.2 117.7C1710.3 121 1771.7 113 1832.8 123.8C1894 134.7 1955 164.3 2016 166.8C2077 169.3 2138 144.7 2168.5 132.3L2199 120L2199 0L2168.5 0C2138 0 2077 0 2016 0C1955 0 1894 0 1832.8 0C1771.7 0 1710.3 0 1649.2 0C1588 0 1527 0 1466 0C1405 0 1344 0 1283 0C1222 0 1161 0 1099.8 0C1038.7 0 977.3 0 916.2 0C855 0 794 0 733 0C672 0 611 0 550 0C489 0 428 0 366.8 0C305.7 0 244.3 0 183.2 0C122 0 61 0 30.5 0L0 0Z" fill="#f0f7fd"></path><path d="M0 104L30.5 109.7C61 115.3 122 126.7 183.2 125.3C244.3 124 305.7 110 366.8 99.5C428 89 489 82 550 71.3C611 60.7 672 46.3 733 39C794 31.7 855 31.3 916.2 36.2C977.3 41 1038.7 51 1099.8 65.5C1161 80 1222 99 1283 109.3C1344 119.7 1405 121.3 1466 110.5C1527 99.7 1588 76.3 1649.2 65.5C1710.3 54.7 1771.7 56.3 1832.8 72.3C1894 88.3 1955 118.7 2016 132.3C2077 146 2138 143 2168.5 141.5L2199 140L2199 0L2168.5 0C2138 0 2077 0 2016 0C1955 0 1894 0 1832.8 0C1771.7 0 1710.3 0 1649.2 0C1588 0 1527 0 1466 0C1405 0 1344 0 1283 0C1222 0 1161 0 1099.8 0C1038.7 0 977.3 0 916.2 0C855 0 794 0 733 0C672 0 611 0 550 0C489 0 428 0 366.8 0C305.7 0 244.3 0 183.2 0C122 0 61 0 30.5 0L0 0Z" fill="#c6e8fd"></path><path d="M0 49L30.5 44.8C61 40.7 122 32.3 183.2 31.8C244.3 31.3 305.7 38.7 366.8 36.5C428 34.3 489 22.7 550 22.2C611 21.7 672 32.3 733 30.8C794 29.3 855 15.7 916.2 9C977.3 2.3 1038.7 2.7 1099.8 6.2C1161 9.7 1222 16.3 1283 29.3C1344 42.3 1405 61.7 1466 58.8C1527 56 1588 31 1649.2 28.7C1710.3 26.3 1771.7 46.7 1832.8 57.7C1894 68.7 1955 70.3 2016 61.8C2077 53.3 2138 34.7 2168.5 25.3L2199 16L2199 0L2168.5 0C2138 0 2077 0 2016 0C1955 0 1894 0 1832.8 0C1771.7 0 1710.3 0 1649.2 0C1588 0 1527 0 1466 0C1405 0 1344 0 1283 0C1222 0 1161 0 1099.8 0C1038.7 0 977.3 0 916.2 0C855 0 794 0 733 0C672 0 611 0 550 0C489 0 428 0 366.8 0C305.7 0 244.3 0 183.2 0C122 0 61 0 30.5 0L0 0Z" fill="#93dafb"></path></svg>