<svg id="visual" viewBox="0 0 2199 1237" width="2199" height="1237" xmlns="http://www.w3.org/2000/svg" xmlns:xlink="http://www.w3.org/1999/xlink" version="1.1"><path d="M0 933L52.3 936.8C104.7 940.7 209.3 948.3 314 934.8C418.7 921.3 523.3 886.7 628 879.5C732.7 872.3 837.3 892.7 942.2 893.8C1047 895 1152 877 1256.8 881.2C1361.7 885.3 1466.3 911.7 1571 908.7C1675.7 905.7 1780.3 873.3 1885 845.3C1989.7 817.3 2094.3 793.7 2146.7 781.8L2199 770L2199 1238L2146.7 1238C2094.3 1238 1989.7 1238 1885 1238C1780.3 1238 1675.7 1238 1571 1238C1466.3 1238 1361.7 1238 1256.8 1238C1152 1238 1047 1238 942.2 1238C837.3 1238 732.7 1238 628 1238C523.3 1238 418.7 1238 314 1238C209.3 1238 104.7 1238 52.3 1238L0 1238Z" fill="#f0f7fd"></path><path d="M0 1036L52.3 1029.3C104.7 1022.7 209.3 1009.3 314 1003.3C418.7 997.3 523.3 998.7 628 982C732.7 965.3 837.3 930.7 942.2 923.5C1047 916.3 1152 936.7 1256.8 955C1361.7 973.3 1466.3 989.7 1571 1003.2C1675.7 1016.7 1780.3 1027.3 1885 1012.8C1989.7 998.3 2094.3 958.7 2146.7 938.8L2199 919L2199 1238L2146.7 1238C2094.3 1238 1989.7 1238 1885 1238C1780.3 1238 1675.7 1238 1571 1238C1466.3 1238 1361.7 1238 1256.8 1238C1152 1238 1047 1238 942.2 1238C837.3 1238 732.7 1238 628 1238C523.3 1238 418.7 1238 314 1238C209.3 1238 104.7 1238 52.3 1238L0 1238Z" fill="#c6e8fd"></path><path d="M0 1105L52.3 1092.7C104.7 1080.3 209.3 1055.7 314 1055.5C418.7 1055.3 523.3 1079.7 628 1091C732.7 1102.3 837.3 1100.7 942.2 1105.5C1047 1110.3 1152 1121.7 1256.8 1129.5C1361.7 1137.3 1466.3 1141.7 1571 1127.7C1675.7 1113.7 1780.3 1081.3 1885 1058.7C1989.7 1036 2094.3 1023 2146.7 1016.5L2199 1010L2199 1238L2146.7 1238C2094.3 1238 1989.7 1238 1885 1238C1780.3 1238 1675.7 1238 1571 1238C1466.3 1238 1361.7 1238 1256.8 1238C1152 1238 1047 1238 942.2 1238C837.3 1238 732.7 1238 628 1238C523.3 1238 418.7 1238 314 1238C209.3 1238 104.7 1238 52.3 1238L0 1238Z" fill="#93dafb"></path></svg>